<svg xmlns="http://www.w3.org/2000/svg" width="169" height="177" viewBox="0 0 169 177"><defs><clipPath id="ke7ja"><path fill="#fff" d="M76.416 81.636a5.795 5.795 0 0 1 1.457 2.358 5.96 5.96 0 0 1 2.731-.658c.982 0 1.907.235 2.721.652a5.795 5.795 0 0 1 1.46-2.37 5.908 5.908 0 0 1 2.392-1.435 5.743 5.743 0 0 1-.667-2.693c0-.963.237-1.872.656-2.672a5.908 5.908 0 0 1-2.38-1.433 5.795 5.795 0 0 1-1.46-2.369 5.961 5.961 0 0 1-2.722.652 5.96 5.96 0 0 1-2.731-.657 5.795 5.795 0 0 1-1.457 2.357 5.908 5.908 0 0 1-2.403 1.44c.422.803.661 1.715.661 2.682 0 .975-.243 1.895-.672 2.703a5.908 5.908 0 0 1 2.414 1.443zm-8.369-16.518c1.872-1.846 4.686-2.197 6.916-1.052.76-2.358 2.998-4.066 5.641-4.066 2.648 0 4.89 1.714 5.645 4.077 2.229-1.137 5.037-.785 6.906 1.058a5.775 5.775 0 0 1 1.078 6.797c2.386.752 4.113 2.956 4.113 5.558 0 2.606-1.733 4.812-4.124 5.561a5.775 5.775 0 0 1-1.067 6.818c-1.87 1.843-4.677 2.195-6.905 1.058-.757 2.363-2.998 4.077-5.646 4.077-2.643 0-4.881-1.708-5.64-4.066-2.23 1.145-5.045.794-6.917-1.051a5.775 5.775 0 0 1-1.062-6.829c-2.403-.742-4.147-2.954-4.147-5.568 0-2.61 1.739-4.82 4.136-5.565a5.775 5.775 0 0 1 1.073-6.807z"/></clipPath><clipPath id="ke7jb"><path fill="#fff" d="M80.592 66.996c5.88 0 10.647 4.701 10.647 10.5 0 5.8-4.767 10.502-10.647 10.502s-10.646-4.701-10.646-10.501 4.766-10.501 10.646-10.501z"/></clipPath><clipPath id="ke7jc"><path fill="#fff" d="M81.47 116.695l-1.045-1.044 13.946-13.827 1.045 1.045z"/></clipPath><clipPath id="ke7jd"><path fill="#fff" d="M81.631 115.115l-1.045 1.744-17.433-17.283 1.045-1.744z"/></clipPath><clipPath id="ke7je"><path fill="#fff" d="M108.996 89.947s-.984 14.419-5.24 18.638c-4.254 4.218-10.74 4.629-14.484.916-3.744-3.712-3.33-10.141.925-14.36 4.255-4.218 18.799-5.194 18.799-5.194z"/></clipPath><clipPath id="ke7jf"><path fill="#fff" d="M59.998 96.398s.72 10.51 3.837 13.585c3.117 3.075 7.867 3.374 10.61.668 2.743-2.706 2.44-7.392-.677-10.467s-13.77-3.786-13.77-3.786z"/></clipPath></defs><g><g><g><path d="M31 48h100v100H31z"/></g><g><path fill="#fff" d="M79.914 93.325h2.066V130h-2.066z"/></g><g><path fill="none" stroke="#fff" stroke-miterlimit="20" stroke-width="6" d="M76.416 81.636a5.795 5.795 0 0 1 1.457 2.358 5.96 5.96 0 0 1 2.731-.658c.982 0 1.907.235 2.721.652a5.795 5.795 0 0 1 1.46-2.37 5.908 5.908 0 0 1 2.392-1.435 5.743 5.743 0 0 1-.667-2.693c0-.963.237-1.872.656-2.672a5.908 5.908 0 0 1-2.38-1.433 5.795 5.795 0 0 1-1.46-2.369 5.961 5.961 0 0 1-2.722.652 5.96 5.96 0 0 1-2.731-.657 5.795 5.795 0 0 1-1.457 2.357 5.908 5.908 0 0 1-2.403 1.44c.422.803.661 1.715.661 2.682 0 .975-.243 1.895-.672 2.703a5.908 5.908 0 0 1 2.414 1.443zm-8.369-16.518c1.872-1.846 4.686-2.197 6.916-1.052.76-2.358 2.998-4.066 5.641-4.066 2.648 0 4.89 1.714 5.645 4.077 2.229-1.137 5.037-.785 6.906 1.058a5.775 5.775 0 0 1 1.078 6.797c2.386.752 4.113 2.956 4.113 5.558 0 2.606-1.733 4.812-4.124 5.561a5.775 5.775 0 0 1-1.067 6.818c-1.87 1.843-4.677 2.195-6.905 1.058-.757 2.363-2.998 4.077-5.646 4.077-2.643 0-4.881-1.708-5.64-4.066-2.23 1.145-5.045.794-6.917-1.051a5.775 5.775 0 0 1-1.062-6.829c-2.403-.742-4.147-2.954-4.147-5.568 0-2.61 1.739-4.82 4.136-5.565a5.775 5.775 0 0 1 1.073-6.807z" clip-path="url(&quot;#ke7ja&quot;)"/></g><g><path fill="none" stroke="#fff" stroke-miterlimit="20" stroke-width="6" d="M80.592 66.996c5.88 0 10.647 4.701 10.647 10.5 0 5.8-4.767 10.502-10.647 10.502s-10.646-4.701-10.646-10.501 4.766-10.501 10.646-10.501z" clip-path="url(&quot;#ke7jb&quot;)"/></g><g><path fill="none" stroke="#fff" stroke-miterlimit="20" stroke-width="6" d="M81.47 116.695v0l-1.045-1.044v0l13.946-13.827v0l1.045 1.045v0z" clip-path="url(&quot;#ke7jc&quot;)"/></g><g><path fill="none" stroke="#fff" stroke-miterlimit="20" stroke-width="6" d="M81.631 115.115v0l-1.045 1.744v0L63.153 99.576v0l1.045-1.744v0z" clip-path="url(&quot;#ke7jd&quot;)"/></g><g><path fill="none" stroke="#fff" stroke-miterlimit="20" stroke-width="6" d="M108.996 89.947v0s-.984 14.419-5.24 18.638c-4.254 4.218-10.74 4.629-14.484.916-3.744-3.712-3.33-10.141.925-14.36 4.255-4.218 18.799-5.194 18.799-5.194z" clip-path="url(&quot;#ke7je&quot;)"/></g><g><path fill="none" stroke="#fff" stroke-miterlimit="20" stroke-width="6" d="M59.998 96.398v0s.72 10.51 3.837 13.585c3.117 3.075 7.867 3.374 10.61.668 2.743-2.706 2.44-7.392-.677-10.467s-13.77-3.786-13.77-3.786z" clip-path="url(&quot;#ke7jf&quot;)"/></g></g></g></svg>